# xmcd CD database file
#
# Track frame offsets:
#	150
#	21582
#	42765
#	62888
#	82496
#	98376
#	114559
#	129690
#	148726
#	165184
#	183168
#	199451
#	217321
#	233855
#
# Disc length: 3388 seconds
#
# Revision: 1
# Processed by: cddbd v1.4PL0 Copyright (c) Steve Scherf et al.
# Submitted via: CDex 1.40Beta9
#
DISCID=d10d3a0e
DTITLE=Rick and Renner - E Dez, E Cem, E Mil
DYEAR=2001
DGENRE=Sertanejo
TTITLE0=É dez, é cem, é mil
TTITLE1=Chamei Seu Nome
TTITLE2=O Amor e Eu
TTITLE3=Relax
TTITLE4=Fica Amor, Tá cedo
TTITLE5=Nao Choro Mais
TTITLE6=Cachaça
TTITLE7=Sem Direção
TTITLE8=Se Você Não Voltar
TTITLE9=Sentimento Alado
TTITLE10=Escolta de Vagalumes
TTITLE11=Prazer e Adeus
TTITLE12=Minha Luz
TTITLE13=Filha
EXTD=YEAR: 2001
EXTT0=
EXTT1=
EXTT2=
EXTT3=
EXTT4=
EXTT5=
EXTT6=
EXTT7=
EXTT8=
EXTT9=
EXTT10=
EXTT11=
EXTT12=
EXTT13=
PLAYORDER=
